<svg xmlns="http://www.w3.org/2000/svg" viewBox="0 0 512 512">
  <defs><pattern id="hz" width="56" height="56" patternUnits="userSpaceOnUse" patternTransform="rotate(-45)"><rect width="28" height="56" fill="#FFC61A"/><rect x="28" width="28" height="56" fill="#231911"/></pattern></defs>
  <rect width="512" height="512" fill="#7FD0F5"/>
  <rect y="392" width="512" height="120" fill="#4A2E14"/>
  <rect y="384" width="512" height="22" fill="url(#hz)"/>
  <g stroke="#231911" stroke-width="12" stroke-linejoin="round">
    <path d="M150 196h120l38 62h86q22 0 22 22v50H96v-56q0-22 22-22h32z" fill="#E23B2E"/>
    <path d="M178 212h80l26 46H178z" fill="#BFE9FF"/>
    <path d="M118 300l40-26 26 26 30-26 30 26" fill="none" stroke="#FFC61A" stroke-width="12" stroke-linecap="round"/>
    <rect x="110" y="322" width="300" height="20" rx="8" fill="#231911"/>
  </g>
  <g stroke="#231911" stroke-width="12">
    <circle cx="160" cy="370" r="68" fill="#2b2b2b"/><circle cx="160" cy="370" r="26" fill="#FFC61A"/>
    <circle cx="360" cy="370" r="68" fill="#2b2b2b"/><circle cx="360" cy="370" r="26" fill="#FFC61A"/>
  </g>
</svg>
